<svg width="1000" height="346" viewBox="0 0 1000 346" fill="none" xmlns="http://www.w3.org/2000/svg">
<path fill-rule="evenodd" clip-rule="evenodd" d="M459.854 294.862V14.6386H489.051V294.862H459.854Z" fill="url(#paint0_linear_15_2)"/>
<path fill-rule="evenodd" clip-rule="evenodd" d="M500.048 251.183C604.165 221.354 604.165 73.3976 500.048 43.5681L508.129 15.2059C640.694 53.1853 640.694 241.566 508.129 279.546L500.048 251.183Z" fill="url(#paint1_linear_15_2)"/>
<path fill-rule="evenodd" clip-rule="evenodd" d="M0 345.957V16.7293H29.1971V345.957H0Z" fill="url(#paint2_linear_15_2)"/>
<path fill-rule="evenodd" clip-rule="evenodd" d="M87.5912 294.862V16.7293H116.788V294.862H87.5912Z" fill="url(#paint3_linear_15_2)"/>
<path fill-rule="evenodd" clip-rule="evenodd" d="M175.86 290.454L263.451 12.3213L291.293 21.1376L203.702 299.27L175.86 290.454Z" fill="url(#paint4_linear_15_2)"/>
<path fill-rule="evenodd" clip-rule="evenodd" d="M408.082 290.454L320.49 12.3213L292.648 21.1376L380.24 299.27L408.082 290.454Z" fill="url(#paint5_linear_15_2)"/>
<path fill-rule="evenodd" clip-rule="evenodd" d="M749.039 251.509C645.698 221.902 645.698 75.0496 749.039 45.4428L741.018 17.2921C609.442 54.9882 609.442 241.964 741.018 279.66L749.039 251.509Z" fill="url(#paint6_linear_15_2)"/>
<path fill-rule="evenodd" clip-rule="evenodd" d="M729.927 146.386H700.73V117.108H729.927V146.386Z" fill="url(#paint7_linear_15_2)"/>
<path fill-rule="evenodd" clip-rule="evenodd" d="M306.569 146.386H277.372V117.108H306.569V146.386Z" fill="url(#paint8_linear_15_2)"/>
<path fill-rule="evenodd" clip-rule="evenodd" d="M72.9927 146.386H43.7956V117.108H72.9927V146.386Z" fill="url(#paint9_linear_15_2)"/>
<path fill-rule="evenodd" clip-rule="evenodd" d="M883.212 117.108C883.212 52.4312 935.5 0 1000 0V29.2771C951.625 29.2771 912.409 68.6005 912.409 117.108H883.212Z" fill="url(#paint10_linear_15_2)"/>
<path fill-rule="evenodd" clip-rule="evenodd" d="M970.803 102.47C970.803 207.57 885.835 292.771 781.022 292.771V263.494C869.71 263.494 941.606 191.401 941.606 102.47H970.803Z" fill="url(#paint11_linear_15_2)"/>
<defs>
<linearGradient id="paint0_linear_15_2" x1="510.949" y1="0" x2="510.949" y2="299.27" gradientUnits="userSpaceOnUse">
<stop offset="0.197915" stop-color="#4E0084"/>
<stop offset="0.75521" stop-color="#F80705"/>
<stop offset="1" stop-color="#FEED01"/>
</linearGradient>
<linearGradient id="paint1_linear_15_2" x1="510.949" y1="0" x2="510.949" y2="299.27" gradientUnits="userSpaceOnUse">
<stop offset="0.197915" stop-color="#4E0084"/>
<stop offset="0.75521" stop-color="#F80705"/>
<stop offset="1" stop-color="#FEED01"/>
</linearGradient>
<linearGradient id="paint2_linear_15_2" x1="510.949" y1="0" x2="510.949" y2="299.27" gradientUnits="userSpaceOnUse">
<stop offset="0.197915" stop-color="#4E0084"/>
<stop offset="0.75521" stop-color="#F80705"/>
<stop offset="1" stop-color="#FEED01"/>
</linearGradient>
<linearGradient id="paint3_linear_15_2" x1="510.949" y1="0" x2="510.949" y2="299.27" gradientUnits="userSpaceOnUse">
<stop offset="0.197915" stop-color="#4E0084"/>
<stop offset="0.75521" stop-color="#F80705"/>
<stop offset="1" stop-color="#FEED01"/>
</linearGradient>
<linearGradient id="paint4_linear_15_2" x1="510.949" y1="0" x2="510.949" y2="299.27" gradientUnits="userSpaceOnUse">
<stop offset="0.197915" stop-color="#4E0084"/>
<stop offset="0.75521" stop-color="#F80705"/>
<stop offset="1" stop-color="#FEED01"/>
</linearGradient>
<linearGradient id="paint5_linear_15_2" x1="510.949" y1="0" x2="510.949" y2="299.27" gradientUnits="userSpaceOnUse">
<stop offset="0.197915" stop-color="#4E0084"/>
<stop offset="0.75521" stop-color="#F80705"/>
<stop offset="1" stop-color="#FEED01"/>
</linearGradient>
<linearGradient id="paint6_linear_15_2" x1="510.949" y1="0" x2="510.949" y2="299.27" gradientUnits="userSpaceOnUse">
<stop offset="0.197915" stop-color="#4E0084"/>
<stop offset="0.75521" stop-color="#F80705"/>
<stop offset="1" stop-color="#FEED01"/>
</linearGradient>
<linearGradient id="paint7_linear_15_2" x1="510.949" y1="0" x2="510.949" y2="299.27" gradientUnits="userSpaceOnUse">
<stop offset="0.197915" stop-color="#4E0084"/>
<stop offset="0.75521" stop-color="#F80705"/>
<stop offset="1" stop-color="#FEED01"/>
</linearGradient>
<linearGradient id="paint8_linear_15_2" x1="510.949" y1="0" x2="510.949" y2="299.27" gradientUnits="userSpaceOnUse">
<stop offset="0.197915" stop-color="#4E0084"/>
<stop offset="0.75521" stop-color="#F80705"/>
<stop offset="1" stop-color="#FEED01"/>
</linearGradient>
<linearGradient id="paint9_linear_15_2" x1="510.949" y1="0" x2="510.949" y2="299.27" gradientUnits="userSpaceOnUse">
<stop offset="0.197915" stop-color="#4E0084"/>
<stop offset="0.75521" stop-color="#F80705"/>
<stop offset="1" stop-color="#FEED01"/>
</linearGradient>
<linearGradient id="paint10_linear_15_2" x1="510.949" y1="0" x2="510.949" y2="299.27" gradientUnits="userSpaceOnUse">
<stop offset="0.197915" stop-color="#4E0084"/>
<stop offset="0.75521" stop-color="#F80705"/>
<stop offset="1" stop-color="#FEED01"/>
</linearGradient>
<linearGradient id="paint11_linear_15_2" x1="510.949" y1="0" x2="510.949" y2="299.27" gradientUnits="userSpaceOnUse">
<stop offset="0.197915" stop-color="#4E0084"/>
<stop offset="0.75521" stop-color="#F80705"/>
<stop offset="1" stop-color="#FEED01"/>
</linearGradient>
</defs>
</svg>
